<?xml version="1.0" standalone="no"?>
<!DOCTYPE svg PUBLIC "-//W3C//DTD SVG 20010904//EN"
 "http://www.w3.org/TR/2001/REC-SVG-20010904/DTD/svg10.dtd">
<svg version="1.0" xmlns="http://www.w3.org/2000/svg"
 width="347.000000pt" height="347.000000pt" viewBox="0 0 347.000000 347.000000"
 preserveAspectRatio="xMidYMid meet">
<metadata>
Created by potrace 1.14, written by Peter Selinger 2001-2017
</metadata>
<g transform="translate(0.000000,347.000000) scale(0.100000,-0.100000)"
fill="#000000" stroke="none">
<path d="M1797 3464 c-1 -1 -27 -5 -57 -8 -94 -9 -132 -16 -225 -43 -89 -25
-267 -106 -273 -124 -2 -5 -8 -9 -14 -9 -31 0 -289 -249 -388 -376 -193 -246
-289 -408 -385 -654 -105 -269 -152 -428 -191 -650 -3 -19 -7 -114 -9 -210 -4
-167 -2 -188 29 -345 22 -110 159 -396 199 -413 4 -2 7 -9 7 -15 0 -7 21 -34
46 -62 25 -27 62 -68 82 -91 20 -22 66 -64 102 -92 36 -29 70 -57 77 -62 7 -6
17 -10 23 -10 5 0 10 -3 10 -7 0 -5 10 -13 23 -19 84 -41 173 -88 177 -94 21
-27 261 -125 335 -137 17 -2 46 -8 65 -13 19 -4 42 -8 50 -8 8 0 31 -3 50 -6
43 -7 241 -8 247 -2 3 3 16 1 29 -4 13 -5 24 -6 24 -2 0 4 15 7 33 8 35 1 107
13 172 29 39 9 160 45 175 51 8 4 20 8 25 9 95 23 417 191 481 250 12 11 37
31 55 45 18 14 42 36 54 49 11 13 27 31 36 40 51 52 200 291 181 291 -4 0 -2
4 3 8 13 9 89 212 99 267 2 11 11 40 19 65 9 25 20 88 27 140 6 52 13 115 16
140 6 54 7 326 0 355 -2 11 -7 49 -11 85 -13 122 -45 295 -64 345 -11 28 -33
86 -49 130 -55 145 -94 229 -131 285 -21 30 -56 87 -79 127 -23 39 -48 78 -55
85 -14 15 -32 40 -81 114 -19 28 -49 67 -68 86 -18 18 -72 77 -120 129 -48 53
-113 116 -145 140 -32 24 -59 47 -61 52 -2 4 -10 7 -17 7 -7 0 -15 3 -17 8 -5
12 -100 59 -178 87 -65 23 -92 27 -203 29 -71 1 -129 1 -130 0z"/>
</g>
</svg>
